<svg width="52" height="52" viewBox="0 0 52 52" fill="none" xmlns="http://www.w3.org/2000/svg">
<rect x="21.6516" y="7.47191" width="27.7622" height="14.8968" fill="#166DE0" fill-opacity="0.12"/>
<path d="M39.4972 29.4546H24.4794C23.9277 29.4546 23.4806 29.0204 23.4806 28.485C23.4806 27.9496 23.9277 27.5154 24.4794 27.5154H39.4973C40.0489 27.5154 40.4961 27.9496 40.4961 28.485C40.4961 29.0204 40.0488 29.4546 39.4972 29.4546Z" fill="#145DBF"/>
<path d="M32.7988 34.1735H24.4876C23.9314 34.1735 23.4806 33.7394 23.4806 33.2039C23.4806 32.6685 23.9314 32.2344 24.4876 32.2344H32.7989C33.3551 32.2344 33.8059 32.6685 33.8059 33.2039C33.8059 33.7394 33.355 34.1735 32.7988 34.1735Z" fill="#145DBF"/>
<path d="M48.0568 6.11765H23.2587C21.6481 6.11765 20.3378 7.42922 20.3378 9.04136V16.5726H4.49579C2.75488 16.5726 1.3385 17.989 1.3385 19.7299V37.589C1.3385 41.0693 1.3385 40.7463 1.3385 40.7463V46.4528C1.3385 46.7998 1.67248 47.1203 1.97325 47.2933C2.12286 47.3794 2.28973 47.4224 2.45659 47.4224C2.62511 47.4224 2.79362 47.3785 2.9443 47.2908L11.281 40.7465H42.2579C44.0004 40.7465 45.4179 39.3301 45.4179 37.5892V23.863H48.0568C49.6689 23.863 50.9805 22.5526 50.9805 20.942V9.04136C50.9805 7.42922 49.6689 6.11765 48.0568 6.11765ZM43.4787 37.5891C43.4787 38.2495 42.9196 38.8072 42.2579 38.8072H11.0194C10.848 38.8072 10.6798 38.8526 10.5317 38.9388L3.27769 44.7666V39.7768C3.27769 37.7706 3.27769 39.9555 3.27769 37.5891V19.73C3.27769 19.0582 3.82415 18.5119 4.49579 18.5119H20.3377V20.942C20.3377 22.5526 21.648 23.863 23.2586 23.863H43.4786L43.4787 37.5891ZM49.0413 20.942C49.0413 21.4834 48.5996 21.9238 48.0568 21.9238H23.2587C22.7174 21.9238 22.277 21.4834 22.277 20.942V9.04136C22.277 8.49849 22.7174 8.05684 23.2587 8.05684H48.0568C48.5997 8.05684 49.0413 8.49858 49.0413 9.04136V20.942Z" fill="#145DBF"/>
<path d="M43.0712 11.1637H40.4164C38.6418 11.1637 37.146 12.3793 36.7159 14.022H34.6021C34.1717 12.3793 32.6748 11.1637 30.8989 11.1637H28.244C26.1333 11.1637 24.4161 12.8809 24.4161 14.9916C24.4161 17.1008 26.1333 18.8168 28.244 18.8168H30.8988C32.6744 18.8168 34.1711 17.6024 34.6018 15.9612H36.716C37.1463 17.6024 38.642 18.8168 40.4163 18.8168H43.0711C45.1818 18.8168 46.899 17.1008 46.899 14.9916C46.8991 12.8809 45.1819 11.1637 43.0712 11.1637ZM30.8988 16.8777H28.244C27.2026 16.8777 26.3553 16.0316 26.3553 14.9917C26.3553 13.9502 27.2026 13.103 28.244 13.103H30.8988C31.5855 13.103 32.186 13.4726 32.5166 14.0221H31.8717C31.3362 14.0221 30.9021 14.4563 30.9021 14.9917C30.9021 15.5271 31.3362 15.9613 31.8717 15.9613H32.5157C32.185 16.5092 31.585 16.8777 30.8988 16.8777ZM43.0712 16.8777H40.4164C39.7313 16.8777 39.1322 16.5093 38.8018 15.9613H39.4435C39.979 15.9613 40.4131 15.5271 40.4131 14.9917C40.4131 14.4563 39.979 14.0221 39.4435 14.0221H38.8009C39.1311 13.4725 39.7307 13.103 40.4164 13.103H43.0712C44.1127 13.103 44.9599 13.9502 44.9599 14.9917C44.9599 16.0316 44.1127 16.8777 43.0712 16.8777Z" fill="#145DBF"/>
<circle cx="13.526" cy="28.4628" r="5.78943" stroke="#145DBF" stroke-width="1.96367"/>
<circle cx="13.526" cy="28.4628" r="5.41701" fill="#166DE0" fill-opacity="0.12"/>
</svg>
